#Comment line ignore any data following # character 
#Hierarchical Translation and Rotation (.htr) file 
[Header]	
#Header keywords are followed by a single value 
FileType HTR		#Single word string
DataType HTRS		#Translation followed by rotation and scale data
FileVersion 1		#integer
NumSegments 84		#integer
NumFrames 2		#integer
DataFrameRate 30		#integer, data frame rate in this file
EulerRotationOrder ZYX
CalibrationUnits mm
RotationUnits Degrees
GlobalAxisofGravity Y
BoneLengthAxis Y
ScaleFactor 1.00
[SegmentNames&Hierarchy]
#CHILD	PARENT
MASTER GLOBAL
root MASTER
chest root
L_mid_tent01 root
R_mid_tent01 root
spine01 root
Bip01_Neck chest
L_humerus chest
R_humerus chest
weapon_bone chest
Bip01_Head Bip01_Neck
eye_left_bone Bip01_Head
eye_right_bone Bip01_Head
L_forearm L_humerus
L_front_hand L_forearm
L_weapon_bone L_forearm
L_front_hand01_01 L_front_hand
L_front_hand02_01 L_front_hand
L_front_hand03_01 L_front_hand
L_front_hand01_02 L_front_hand01_01
L_front_hand02_02 L_front_hand02_01
L_front_hand03_02 L_front_hand03_01
R_forearm R_humerus
R_front_hand R_forearm
R_weapon_bone R_forearm
R_front_hand01_01 R_front_hand
R_front_hand02_01 R_front_hand
R_front_hand03_01 R_front_hand
R_front_hand01_02 R_front_hand01_01
R_front_hand02_02 R_front_hand02_01
R_front_hand03_02 R_front_hand03_01
null_rope01_connect L_mid_tent01
Rope1_Seg01 null_rope01_connect
Rope1_Seg02 Rope1_Seg01
Rope1_Seg03 Rope1_Seg02
Rope1_Seg04 Rope1_Seg03
Rope1_Seg05 Rope1_Seg04
Rope1_Seg06 Rope1_Seg05
Rope1_Seg07 Rope1_Seg06
Rope1_Seg09 Rope1_Seg07
L_mid_hand01 Rope1_Seg09
L_mid_hand02 Rope1_Seg09
L_mid_hand03 Rope1_Seg09
null_rope02_connect R_mid_tent01
Rope2_Seg01 null_rope02_connect
Rope2_Seg02 Rope2_Seg01
Rope2_Seg03 Rope2_Seg02
Rope2_Seg04 Rope2_Seg03
Rope2_Seg05 Rope2_Seg04
Rope2_Seg06 Rope2_Seg05
Rope2_Seg07 Rope2_Seg06
Rope2_Seg09 Rope2_Seg07
R_mid_hand01 Rope2_Seg09
R_mid_hand02 Rope2_Seg09
R_mid_hand03 Rope2_Seg09
spine02 spine01
spine03 spine02
pelvis spine03
null_rope03_connect pelvis
null_rope04_connect pelvis
Rope3_Seg01 null_rope03_connect
Rope3_Seg02 Rope3_Seg01
Rope3_Seg03 Rope3_Seg02
Rope3_Seg04 Rope3_Seg03
Rope3_Seg05 Rope3_Seg04
Rope3_Seg06 Rope3_Seg05
Rope3_Seg07 Rope3_Seg06
Rope3_Seg08 Rope3_Seg07
Rope3_Seg09 Rope3_Seg08
R_rear_hand01 Rope3_Seg09
R_rear_hand02 Rope3_Seg09
R_rear_hand03 Rope3_Seg09
Rope4_Seg01 null_rope04_connect
Rope4_Seg02 Rope4_Seg01
Rope4_Seg03 Rope4_Seg02
Rope4_Seg04 Rope4_Seg03
Rope4_Seg05 Rope4_Seg04
Rope4_Seg06 Rope4_Seg05
Rope4_Seg07 Rope4_Seg06
Rope4_Seg08 Rope4_Seg07
Rope4_Seg09 Rope4_Seg08
L_rear_hand01 Rope4_Seg09
L_rear_hand02 Rope4_Seg09
L_rear_hand03 Rope4_Seg09
[BasePosition]
#SegmentName Tx, Ty, Tz, Rx, Ry, Rz, BoneLength
MASTER 0.000000 0.000000 0.000000 -90.000000 0.000000 0.000000 10.000000 
root 0.000000 0.000000 0.000000 0.000000 0.000000 0.000000 10.000000 
chest 0.000000 0.000000 0.000000 0.000000 0.000000 0.000000 10.000000 
L_mid_tent01 0.000000 0.000000 0.000000 0.000000 0.000000 0.000000 10.000000 
R_mid_tent01 0.000000 0.000000 0.000000 0.000000 0.000000 0.000000 10.000000 
spine01 0.000000 0.000000 0.000000 0.000000 0.000000 0.000000 10.000000 
Bip01_Neck 0.000000 0.000000 0.000000 0.000000 0.000000 0.000000 10.000000 
L_humerus 0.000000 0.000000 0.000000 0.000000 0.000000 0.000000 10.000000 
R_humerus 0.000000 0.000000 0.000000 0.000000 0.000000 0.000000 10.000000 
weapon_bone 0.000000 0.000000 0.000000 0.000000 0.000000 0.000000 10.000000 
Bip01_Head 0.000000 0.000000 0.000000 0.000000 0.000000 0.000000 10.000000 
eye_left_bone 0.000000 0.000000 0.000000 0.000000 0.000000 0.000000 10.000000 
eye_right_bone 0.000000 0.000000 0.000000 0.000000 0.000000 0.000000 10.000000 
L_forearm 0.000000 0.000000 0.000000 0.000000 0.000000 0.000000 10.000000 
L_front_hand 0.000000 0.000000 0.000000 0.000000 0.000000 0.000000 10.000000 
L_weapon_bone 0.000000 0.000000 0.000000 0.000000 0.000000 0.000000 10.000000 
L_front_hand01_01 0.000000 0.000000 0.000000 0.000000 0.000000 0.000000 10.000000 
L_front_hand02_01 0.000000 0.000000 0.000000 0.000000 0.000000 0.000000 10.000000 
L_front_hand03_01 0.000000 0.000000 0.000000 0.000000 0.000000 0.000000 10.000000 
L_front_hand01_02 0.000000 0.000000 0.000000 0.000000 0.000000 0.000000 10.000000 
L_front_hand02_02 0.000000 0.000000 0.000000 0.000000 0.000000 0.000000 10.000000 
L_front_hand03_02 0.000000 0.000000 0.000000 0.000000 0.000000 0.000000 10.000000 
R_forearm 0.000000 0.000000 0.000000 0.000000 0.000000 0.000000 10.000000 
R_front_hand 0.000000 0.000000 0.000000 0.000000 0.000000 0.000000 10.000000 
R_weapon_bone 0.000000 0.000000 0.000000 0.000000 0.000000 0.000000 10.000000 
R_front_hand01_01 0.000000 0.000000 0.000000 0.000000 0.000000 0.000000 10.000000 
R_front_hand02_01 0.000000 0.000000 0.000000 0.000000 0.000000 0.000000 10.000000 
R_front_hand03_01 0.000000 0.000000 0.000000 0.000000 0.000000 0.000000 10.000000 
R_front_hand01_02 0.000000 0.000000 0.000000 0.000000 0.000000 0.000000 10.000000 
R_front_hand02_02 0.000000 0.000000 0.000000 0.000000 0.000000 0.000000 10.000000 
R_front_hand03_02 0.000000 0.000000 0.000000 0.000000 0.000000 0.000000 10.000000 
null_rope01_connect 0.000000 0.000000 0.000000 0.000000 0.000000 0.000000 10.000000 
Rope1_Seg01 0.000000 0.000000 0.000000 0.000000 0.000000 0.000000 10.000000 
Rope1_Seg02 0.000000 0.000000 0.000000 0.000000 0.000000 0.000000 10.000000 
Rope1_Seg03 0.000000 0.000000 0.000000 0.000000 0.000000 0.000000 10.000000 
Rope1_Seg04 0.000000 0.000000 0.000000 0.000000 0.000000 0.000000 10.000000 
Rope1_Seg05 0.000000 0.000000 0.000000 0.000000 0.000000 0.000000 10.000000 
Rope1_Seg06 0.000000 0.000000 0.000000 0.000000 0.000000 0.000000 10.000000 
Rope1_Seg07 0.000000 0.000000 0.000000 0.000000 0.000000 0.000000 10.000000 
Rope1_Seg09 0.000000 0.000000 0.000000 0.000000 0.000000 0.000000 10.000000 
L_mid_hand01 0.000000 0.000000 0.000000 0.000000 0.000000 0.000000 10.000000 
L_mid_hand02 0.000000 0.000000 0.000000 0.000000 0.000000 0.000000 10.000000 
L_mid_hand03 0.000000 0.000000 0.000000 0.000000 0.000000 0.000000 10.000000 
null_rope02_connect 0.000000 0.000000 0.000000 0.000000 0.000000 0.000000 10.000000 
Rope2_Seg01 0.000000 0.000000 0.000000 0.000000 0.000000 0.000000 10.000000 
Rope2_Seg02 0.000000 0.000000 0.000000 0.000000 0.000000 0.000000 10.000000 
Rope2_Seg03 0.000000 0.000000 0.000000 0.000000 0.000000 0.000000 10.000000 
Rope2_Seg04 0.000000 0.000000 0.000000 0.000000 0.000000 0.000000 10.000000 
Rope2_Seg05 0.000000 0.000000 0.000000 0.000000 0.000000 0.000000 10.000000 
Rope2_Seg06 0.000000 0.000000 0.000000 0.000000 0.000000 0.000000 10.000000 
Rope2_Seg07 0.000000 0.000000 0.000000 0.000000 0.000000 0.000000 10.000000 
Rope2_Seg09 0.000000 0.000000 0.000000 0.000000 0.000000 0.000000 10.000000 
R_mid_hand01 0.000000 0.000000 0.000000 0.000000 0.000000 0.000000 10.000000 
R_mid_hand02 0.000000 0.000000 0.000000 0.000000 0.000000 0.000000 10.000000 
R_mid_hand03 0.000000 0.000000 0.000000 0.000000 0.000000 0.000000 10.000000 
spine02 0.000000 0.000000 0.000000 0.000000 0.000000 0.000000 10.000000 
spine03 0.000000 0.000000 0.000000 0.000000 0.000000 0.000000 10.000000 
pelvis 0.000000 0.000000 0.000000 0.000000 0.000000 0.000000 10.000000 
null_rope03_connect 0.000000 0.000000 0.000000 0.000000 0.000000 0.000000 10.000000 
null_rope04_connect 0.000000 0.000000 0.000000 0.000000 0.000000 0.000000 10.000000 
Rope3_Seg01 0.000000 0.000000 0.000000 0.000000 0.000000 0.000000 10.000000 
Rope3_Seg02 0.000000 0.000000 0.000000 0.000000 0.000000 0.000000 10.000000 
Rope3_Seg03 0.000000 0.000000 0.000000 0.000000 0.000000 0.000000 10.000000 
Rope3_Seg04 0.000000 0.000000 0.000000 0.000000 0.000000 0.000000 10.000000 
Rope3_Seg05 0.000000 0.000000 0.000000 0.000000 0.000000 0.000000 10.000000 
Rope3_Seg06 0.000000 0.000000 0.000000 0.000000 0.000000 0.000000 10.000000 
Rope3_Seg07 0.000000 0.000000 0.000000 0.000000 0.000000 0.000000 10.000000 
Rope3_Seg08 0.000000 0.000000 0.000000 0.000000 0.000000 0.000000 10.000000 
Rope3_Seg09 0.000000 0.000000 0.000000 0.000000 0.000000 0.000000 10.000000 
R_rear_hand01 0.000000 0.000000 0.000000 0.000000 0.000000 0.000000 10.000000 
R_rear_hand02 0.000000 0.000000 0.000000 0.000000 0.000000 0.000000 10.000000 
R_rear_hand03 0.000000 0.000000 0.000000 0.000000 0.000000 0.000000 10.000000 
Rope4_Seg01 0.000000 0.000000 0.000000 0.000000 0.000000 0.000000 10.000000 
Rope4_Seg02 0.000000 0.000000 0.000000 0.000000 0.000000 0.000000 10.000000 
Rope4_Seg03 0.000000 0.000000 0.000000 0.000000 0.000000 0.000000 10.000000 
Rope4_Seg04 0.000000 0.000000 0.000000 0.000000 0.000000 0.000000 10.000000 
Rope4_Seg05 0.000000 0.000000 0.000000 0.000000 0.000000 0.000000 10.000000 
Rope4_Seg06 0.000000 0.000000 0.000000 0.000000 0.000000 0.000000 10.000000 
Rope4_Seg07 0.000000 0.000000 0.000000 0.000000 0.000000 0.000000 10.000000 
Rope4_Seg08 0.000000 0.000000 0.000000 0.000000 0.000000 0.000000 10.000000 
Rope4_Seg09 0.000000 0.000000 0.000000 0.000000 0.000000 0.000000 10.000000 
L_rear_hand01 0.000000 0.000000 0.000000 0.000000 0.000000 0.000000 10.000000 
L_rear_hand02 0.000000 0.000000 0.000000 0.000000 0.000000 0.000000 10.000000 
L_rear_hand03 0.000000 0.000000 0.000000 0.000000 0.000000 0.000000 10.000000 
#Beginning of Data. Separated by tabs
#Fr	Tx	Ty	Tz	Rx	Ry	Rz	SF
[MASTER]
29 0.000003 -0.000016 4798.648926 0.001660 0.001660 0.001660 4798.648926
30 0.000003 -0.000021 4798.485352 0.001660 0.001660 0.001660 4798.485352
[root]
29 -16.502298 -24.072001 1469.575806 -74.371231 -12.403563 -90.014381 1469.865601
30 -16.502298 -25.012510 1470.489624 -71.140343 -11.926876 -90.141533 1470.794800
[chest]
29 -84.512650 -34.090519 0.000000 -52.488758 1.067700 159.065964 91.129311
30 -84.512650 -34.090519 0.000000 -66.255714 3.354014 156.918137 91.129311
[L_mid_tent01]
29 27.299061 22.179008 -249.918686 -10.602164 65.473000 72.528168 252.381653
30 27.299061 22.179008 -249.918686 -24.630720 74.493362 60.211819 252.381653
[R_mid_tent01]
29 23.228794 24.509907 226.238495 161.381622 -69.905464 87.187965 228.744751
30 23.228794 24.509907 226.238495 165.852829 -77.252785 82.440262 228.744751
[spine01]
29 -0.361383 -0.195265 0.000000 0.002062 0.001122 32.879829 0.410763
30 -0.361383 -0.195265 0.000000 0.002062 0.001122 32.879829 0.410763
[Bip01_Neck]
29 165.484543 71.581718 0.000119 176.643677 -1.657967 43.431911 180.302734
30 165.484543 71.581718 0.000119 176.643677 -1.657967 43.431911 180.302734
[L_humerus]
29 -13.983130 -135.272980 -120.471481 77.778236 74.439247 -172.597610 181.680161
30 -13.983130 -135.272980 -120.471481 124.385727 75.140770 -135.260590 181.680161
[R_humerus]
29 -13.983309 -135.273102 125.287651 -168.196777 -31.900034 -102.563248 184.909012
30 -13.983309 -135.273102 125.287651 -168.728256 -49.449146 -98.954063 184.909012
[weapon_bone]
29 235.964890 -300.705902 0.000000 0.000000 -89.951546 -128.212341 382.234833
30 235.964890 -300.705902 0.000000 0.000000 -89.951546 -128.212341 382.234833
[Bip01_Head]
29 213.326889 186.042450 7.559221 32.848309 6.111675 -43.833206 283.155945
30 213.326904 186.042419 7.559230 32.416508 6.070538 -43.833176 283.155945
[eye_left_bone]
29 -24.626970 125.451866 -64.772606 0.000000 -90.000000 -99.840431 143.318359
30 -24.626970 125.451866 -64.772606 0.000000 -90.000000 -99.840431 143.318359
[eye_right_bone]
29 -24.626970 125.451866 64.327362 0.000000 -89.965736 80.156380 143.117676
30 -24.626970 125.451866 64.327362 0.000000 -89.965736 80.156380 143.117676
[L_forearm]
29 322.776093 0.000000 -0.000119 0.000119 -0.002344 -95.807457 322.776093
30 322.776093 0.000000 -0.000119 0.000119 -0.002344 -95.807457 322.776093
[L_front_hand]
29 241.149185 -0.042021 -3.300071 -178.667953 -1.835447 -27.422350 241.171753
30 241.149185 -0.042021 -3.300071 -178.667953 -1.835447 -27.422350 241.171753
[L_weapon_bone]
29 156.183838 0.000000 0.000000 0.000014 0.000007 0.000001 156.183838
30 156.183838 0.000000 0.000000 0.000014 0.000007 0.000001 156.183838
[L_front_hand01_01]
29 86.095154 20.947098 -0.655860 -0.366594 -0.477154 75.385574 88.609184
30 86.095154 20.947098 -0.655860 -0.366594 -0.477154 75.385574 88.609184
[L_front_hand02_01]
29 86.935165 -11.437475 24.513514 154.399796 -59.883835 -61.369587 91.046425
30 86.935165 -11.437475 24.513514 154.399796 -59.883835 -61.369587 91.046425
[L_front_hand03_01]
29 86.637497 -14.123976 -20.424902 -153.913879 58.118130 -62.702892 90.126129
30 86.637497 -14.123976 -20.424902 -153.913849 58.118122 -62.702866 90.126129
[L_front_hand01_02]
29 71.020905 -0.000179 0.000030 0.000334 -0.002323 -106.379684 71.020905
30 71.020905 -0.000179 0.000030 0.000334 -0.002323 -106.379684 71.020905
[L_front_hand02_02]
29 71.020927 -0.000119 0.000060 0.000334 -0.002323 -106.379684 71.020927
30 71.020927 -0.000119 0.000060 0.000334 -0.002323 -106.379684 71.020927
[L_front_hand03_02]
29 71.020905 -0.000060 0.000060 0.000334 -0.002323 -106.379684 71.020905
30 71.020905 -0.000060 0.000060 0.000334 -0.002323 -106.379684 71.020905
[R_forearm]
29 322.776428 -0.000060 0.000030 0.209504 0.012586 -94.339050 322.776428
30 322.776428 -0.000060 0.000030 0.209504 0.012586 -94.339050 322.776428
[R_front_hand]
29 238.847015 -0.006795 2.210259 -2.635298 -10.645461 -26.312506 238.857239
30 238.847015 -0.006795 2.210259 -2.635298 -10.645461 -26.312506 238.857239
[R_weapon_bone]
29 155.664093 0.002503 -0.000030 0.003487 0.001180 -90.988930 155.664078
30 155.664093 0.002503 -0.000030 0.003487 0.001180 -90.988930 155.664078
[R_front_hand01_01]
29 87.624611 14.231146 22.918642 -154.633499 -59.950619 61.746044 91.683487
30 87.624611 14.231146 22.918642 -154.633499 -59.950619 61.746044 91.683487
[R_front_hand02_01]
29 89.356956 14.367283 -19.491137 154.602661 58.302849 63.744389 92.579636
30 89.356956 14.367283 -19.491137 154.602661 58.302849 63.744389 92.579636
[R_front_hand03_01]
29 87.286232 -22.307278 -0.143439 0.162155 -0.423168 -75.767906 90.091743
30 87.286232 -22.307278 -0.143439 0.162155 -0.423168 -75.767921 90.091743
[R_front_hand01_02]
29 71.020905 0.000060 0.000119 0.002323 -0.000334 106.381714 71.020905
30 71.020905 0.000060 0.000119 0.002323 -0.000334 106.381714 71.020905
[R_front_hand02_02]
29 71.020844 -0.000030 -0.000119 0.002323 -0.000334 106.381714 71.020836
30 71.020844 -0.000030 -0.000119 0.002323 -0.000334 106.381714 71.020836
[R_front_hand03_02]
29 71.020905 0.000000 0.000030 0.002323 -0.000334 106.381714 71.020905
30 71.020905 0.000000 0.000030 0.002323 -0.000334 106.381714 71.020905
[null_rope01_connect]
29 328.732483 0.000000 -0.000238 -160.655701 -39.608017 -177.258102 328.732483
30 328.732483 0.000000 -0.000238 -162.966782 -32.822147 -175.238739 328.732483
[Rope1_Seg01]
29 0.000014 -0.000062 0.000388 17.349163 42.353951 -152.797424 0.000394
30 0.000013 -0.000063 0.000402 15.749595 40.725681 -154.352936 0.000407
[Rope1_Seg02]
29 139.999863 -0.000179 0.000000 -6.199790 -22.917299 -13.654469 139.999863
30 139.999863 -0.000179 0.000000 -7.252434 -22.627708 -9.005335 139.999863
[Rope1_Seg03]
29 139.999924 0.000060 -0.000060 -5.604693 -34.380169 -33.339531 139.999924
30 139.999924 0.000060 -0.000060 -11.084291 -37.048271 -29.980280 139.999924
[Rope1_Seg04]
29 139.999924 -0.000060 -0.000119 -2.931437 -14.957664 -21.059452 139.999924
30 139.999924 -0.000060 -0.000119 -6.012420 -15.722814 -20.263704 139.999924
[Rope1_Seg05]
29 139.999832 0.000119 -0.000060 -0.181740 -13.186131 -20.428259 139.999832
30 139.999832 0.000119 -0.000060 -4.790105 -17.505816 -11.720354 139.999832
[Rope1_Seg06]
29 139.999954 0.000119 -0.000060 0.764219 -7.727848 -13.299926 139.999954
30 139.999954 0.000119 -0.000060 -4.629407 -13.902759 -11.317298 139.999954
[Rope1_Seg07]
29 139.999985 0.000060 0.000000 0.704639 -4.206670 -7.249758 139.999985
30 139.999985 0.000060 0.000000 -2.598278 -6.145278 -7.121408 139.999985
[Rope1_Seg09]
29 121.602913 0.000119 -0.000089 -89.793175 -1.359789 0.847147 121.602913
30 121.602913 0.000119 -0.000089 -89.793175 -1.359789 0.847147 121.602913
[L_mid_hand01]
29 103.859421 1.038730 8.195221 130.544373 -67.584534 -38.866943 104.187431
30 103.859421 1.038730 8.195221 130.544373 -67.584534 -38.866943 104.187431
[L_mid_hand02]
29 105.572853 -4.139662 -10.864139 -168.923172 43.409309 -73.498886 106.211075
30 105.572853 -4.139662 -10.864139 -168.923172 43.409309 -73.498886 106.211075
[L_mid_hand03]
29 104.641464 17.579376 -3.913581 -6.012627 17.808174 74.893669 106.179977
30 104.641464 17.579376 -3.913581 -6.012627 17.808178 74.893677 106.179977
[null_rope02_connect]
29 328.732849 0.000179 -0.000119 -146.273621 4.493083 0.707518 328.732849
30 328.732849 0.000179 -0.000119 -146.459961 -5.098612 -3.950225 328.732849
[Rope2_Seg01]
29 -0.000069 0.000098 0.000000 79.472977 23.779305 10.472532 0.000120
30 -0.000075 0.000097 0.000000 78.652328 26.222670 10.467626 0.000122
[Rope2_Seg02]
29 139.999741 -0.000060 -0.000119 5.258060 2.785645 11.056204 139.999756
30 139.999741 -0.000060 -0.000119 5.234766 2.289013 11.882696 139.999756
[Rope2_Seg03]
29 140.000107 0.000030 0.000000 11.363641 6.649995 20.780409 140.000107
30 140.000107 0.000030 0.000000 12.184328 6.375083 22.812983 140.000107
[Rope2_Seg04]
29 139.999802 0.000000 -0.000060 17.945358 12.703032 31.031050 139.999802
30 139.999802 0.000000 -0.000060 18.275387 15.467766 31.275259 139.999802
[Rope2_Seg05]
29 139.999985 -0.000060 0.000119 4.577158 15.892623 7.772068 139.999985
30 139.999985 -0.000060 0.000119 6.459776 11.480842 14.741372 139.999985
[Rope2_Seg06]
29 139.999893 -0.000030 -0.000119 -0.859617 21.986637 -3.213709 139.999893
30 139.999893 -0.000030 -0.000119 3.496087 8.217807 11.422313 139.999893
[Rope2_Seg07]
29 139.999893 0.000060 -0.000060 -3.520713 19.162283 1.780931 139.999893
30 139.999893 0.000060 -0.000060 2.357245 8.624610 9.889379 139.999893
[Rope2_Seg09]
29 121.338966 0.000089 -0.000060 33.793236 -1.359788 -0.847141 121.338966
30 121.338966 0.000089 -0.000060 33.793236 -1.359788 -0.847141 121.338966
[R_mid_hand01]
29 104.680779 11.144459 -10.335981 -16.212063 45.237247 70.462852 105.778534
30 104.680779 11.144459 -10.335981 -16.212063 45.237247 70.462852 105.778534
[R_mid_hand02]
29 104.070427 2.443552 8.231699 49.067368 -67.749771 39.286453 104.424065
30 104.070427 2.443552 8.231699 49.067368 -67.749771 39.286453 104.424065
[R_mid_hand03]
29 106.028137 -11.221827 -5.996406 -177.101105 15.551026 -76.585571 106.788818
30 106.028137 -11.221827 -5.996406 -177.101105 15.551026 -76.585571 106.788818
[spine02]
29 129.756927 0.001550 0.000119 -1.023899 -3.926965 6.770993 129.756927
30 129.756927 0.001550 0.000119 -1.023899 -3.926965 6.770993 129.756927
[spine03]
29 78.614014 0.081738 -4.898995 1.040681 4.146420 4.212376 78.766556
30 78.614014 0.081738 -4.898995 1.040681 4.146420 4.212376 78.766556
[pelvis]
29 169.435242 0.051022 0.000000 0.019518 -0.190233 -10.721436 169.435257
30 169.435242 0.051022 0.000000 0.019518 -0.190233 -10.721436 169.435257
[null_rope03_connect]
29 -1.257226 -2.466202 137.391083 12.790376 -74.655281 56.570492 137.418976
30 -1.257226 -2.466202 137.391083 11.874041 -71.447113 57.030392 137.418976
[null_rope04_connect]
29 -1.259640 -2.480268 -137.844437 12.790376 -74.655281 56.570492 137.872513
30 -1.259640 -2.480268 -137.844437 11.874041 -71.447113 57.030392 137.872513
[Rope3_Seg01]
29 0.000000 0.000000 0.000000 12.875412 -6.268911 -52.517124 0.000000
30 0.000000 0.000000 0.000000 13.736043 -4.151087 -52.705540 0.000000
[Rope3_Seg02]
29 139.999924 -0.000119 0.000060 -2.684105 -8.917459 0.404529 139.999924
30 139.999924 -0.000119 0.000060 -2.883587 -8.660286 0.959318 139.999924
[Rope3_Seg03]
29 139.999924 -0.000119 0.000119 -2.297764 -11.345135 -0.018614 139.999924
30 139.999924 -0.000119 0.000119 -2.727059 -11.384024 0.696128 139.999924
[Rope3_Seg04]
29 139.999924 0.000119 0.000000 -1.102468 -12.532174 -1.046563 139.999924
30 139.999924 0.000119 0.000000 -1.772119 -13.596511 0.088428 139.999924
[Rope3_Seg05]
29 139.999924 -0.000238 0.000060 0.366583 -11.851557 -1.120348 139.999924
30 139.999924 -0.000238 0.000060 -0.055332 -12.974067 -0.330500 139.999924
[Rope3_Seg06]
29 139.999893 -0.000119 -0.000060 2.120280 -14.518283 0.669028 139.999893
30 139.999893 -0.000119 -0.000060 1.688345 -13.882576 0.060196 139.999893
[Rope3_Seg07]
29 139.999771 0.000060 -0.000119 4.623130 -17.686554 2.548428 139.999771
30 139.999771 0.000060 -0.000119 4.203771 -17.189726 0.897635 139.999771
[Rope3_Seg08]
29 139.999985 -0.000060 0.000000 4.357200 -11.043622 2.200873 139.999985
30 139.999985 -0.000060 0.000000 4.557394 -11.922025 1.436598 139.999985
[Rope3_Seg09]
29 90.185997 -0.000179 -0.000060 89.793228 -1.359877 -0.847183 90.185997
30 90.185997 -0.000179 -0.000060 89.793228 -1.359877 -0.847183 90.185997
[R_rear_hand01]
29 103.366196 -6.073594 -10.757982 -177.714203 24.565960 -73.910950 104.101845
30 103.366196 -6.073594 -10.757982 -177.714203 24.565960 -73.910950 104.101845
[R_rear_hand02]
29 100.509819 12.039542 -7.992327 -12.874829 36.868488 72.167213 101.543350
30 100.509819 12.039542 -7.992327 -12.874829 36.868488 72.167213 101.543350
[R_rear_hand03]
29 101.539970 5.215704 5.435467 71.484581 -71.816628 21.513813 101.819031
30 101.539970 5.215704 5.435467 71.484581 -71.816628 21.513813 101.819031
[Rope4_Seg01]
29 0.000010 0.000014 -0.000055 -98.531342 0.851500 -112.755814 0.000058
30 0.000010 0.000013 -0.000052 -99.070709 4.111997 -110.325142 0.000054
[Rope4_Seg02]
29 139.999985 0.000060 0.000119 1.609002 5.685465 -8.618019 139.999985
30 139.999985 0.000060 0.000119 1.370475 5.366076 -9.357466 139.999985
[Rope4_Seg03]
29 139.999924 0.000000 -0.000238 2.646901 8.599389 -14.209143 139.999924
30 139.999924 0.000000 -0.000238 2.067834 8.397835 -15.884237 139.999924
[Rope4_Seg04]
29 139.999985 0.000000 0.000119 3.858753 12.255318 -23.023952 139.999985
30 139.999985 0.000000 0.000119 2.552355 13.900796 -25.766125 139.999985
[Rope4_Seg05]
29 139.999802 -0.000060 -0.000119 2.944317 5.032455 -14.877013 139.999802
30 139.999802 -0.000060 -0.000119 2.309361 3.652618 -16.768019 139.999802
[Rope4_Seg06]
29 139.999924 0.000000 0.000060 1.444108 0.280435 -8.336323 139.999924
30 139.999924 0.000000 0.000060 0.702384 -5.988049 -7.126678 139.999924
[Rope4_Seg07]
29 139.999802 0.000000 0.000000 1.266724 1.456562 -11.506916 139.999802
30 139.999802 0.000000 0.000000 -0.062283 -3.578104 -8.103175 139.999802
[Rope4_Seg08]
29 139.999924 0.000000 0.000119 -1.036303 0.908207 -8.313269 139.999924
30 139.999924 0.000000 0.000119 -2.156508 -1.924089 -5.985700 139.999924
[Rope4_Seg09]
29 90.185791 0.000060 0.000060 -135.617828 2.228885 0.850567 90.185791
30 90.185791 0.000060 0.000060 -135.617828 2.228885 0.850567 90.185791
[L_rear_hand01]
29 101.696655 -8.392275 -7.654577 -12.874829 -36.868488 107.832764 102.329041
30 101.696655 -8.392275 -7.654577 -12.874829 -36.868488 107.832764 102.329041
[L_rear_hand02]
29 102.726799 -1.568258 5.773216 71.484581 71.816628 158.486160 102.900848
30 102.726799 -1.568258 5.773216 71.484581 71.816628 158.486160 102.900848
[L_rear_hand03]
29 104.552910 9.721220 -10.420293 -177.714203 -24.565960 -106.089035 105.519653
30 104.552910 9.721220 -10.420293 -177.714203 -24.565960 -106.089035 105.519653
